<svg width="29" height="29" viewBox="0 0 29 29" fill="none" xmlns="http://www.w3.org/2000/svg">
<path d="M15.875 20H17.9375C18.3171 20 18.625 20.3079 18.625 20.6875C18.625 21.0671 18.3171 21.375 17.9375 21.375H12.4375C12.0579 21.375 11.75 21.0671 11.75 20.6875C11.75 20.3079 12.0579 20 12.4375 20H14.5V13.125H12.4375C12.0579 13.125 11.75 12.8171 11.75 12.4375C11.75 12.0579 12.0579 11.75 12.4375 11.75H15.1875C15.5671 11.75 15.875 12.0579 15.875 12.4375V20ZM14.5 28.25C6.90608 28.25 0.75 22.0939 0.75 14.5C0.75 6.90608 6.90608 0.75 14.5 0.75C22.0939 0.75 28.25 6.90608 28.25 14.5C28.25 22.0939 22.0939 28.25 14.5 28.25ZM14.5 26.875C21.3346 26.875 26.875 21.3346 26.875 14.5C26.875 7.66548 21.3346 2.125 14.5 2.125C7.66548 2.125 2.125 7.66548 2.125 14.5C2.125 21.3346 7.66548 26.875 14.5 26.875ZM13.8125 7.625H15.1875C15.5671 7.625 15.875 7.93281 15.875 8.3125V9.6875C15.875 10.0672 15.5671 10.375 15.1875 10.375H13.8125C13.4329 10.375 13.125 10.0672 13.125 9.6875V8.3125C13.125 7.93281 13.4329 7.625 13.8125 7.625Z" fill="#3C2C26"/>
</svg>
